<svg xmlns="http://www.w3.org/2000/svg" viewBox="0 0 62.8 71.5"><defs><style>.e884aedb-9448-492f-8188-399afd3a8434{isolation:isolate;}.\32 f7b0b51-dae8-40bc-aba7-fb104e4389d8{fill:#fff;}.\32 c713d5b-639e-4172-a82c-e5681cca494b{mix-blend-mode:multiply;}.ae562d08-8621-48b6-acd5-4319f22ea85c{fill:#7fe0b6;}</style></defs><title>logo-play</title><g class="e884aedb-9448-492f-8188-399afd3a8434"><g id="77b7d417-9d7d-439b-aff9-646eb6407213" data-name="Capa 2"><g id="10ce84c0-6b56-43cb-b3cf-a795063140ee" data-name="CABECERA"><g id="dff615ea-793d-4d50-8096-e6cc39fcc944" data-name="&lt;Grupo&gt;"><path class="2f7b0b51-dae8-40bc-aba7-fb104e4389d8" d="M12,43.9h-.7v2.4H12a1.2,1.2,0,0,0,0-2.4Zm0,0h-.7v2.4H12a1.2,1.2,0,0,0,0-2.4Zm0,0h-.7v2.4H12a1.2,1.2,0,0,0,0-2.4Zm0,0h-.7v2.4H12a1.2,1.2,0,0,0,0-2.4Zm0,0h-.7v2.4H12a1.2,1.2,0,0,0,0-2.4Zm10.6.3h0l-.6,1.4h1.3Zm0,0h0l-.6,1.4h1.3ZM12,43.9h-.7v2.4H12a1.2,1.2,0,0,0,0-2.4Zm0,0h-.7v2.4H12a1.2,1.2,0,0,0,0-2.4Zm10.6.3h0l-.6,1.4h1.3Zm0,0h0l-.6,1.4h1.3ZM12,43.9h-.7v2.4H12a1.2,1.2,0,0,0,0-2.4Zm0,0h-.7v2.4H12a1.2,1.2,0,0,0,0-2.4Zm10.6.3h0l-.6,1.4h1.3ZM33,32.4c-.9,0-1.4,1.8-1.4,3.3S32.2,38,33,38s1.1-1,1.1-2.2v-.6C34.1,33.9,33.9,32.4,33,32.4Zm0,0c-.9,0-1.4,1.8-1.4,3.3S32.2,38,33,38s1.1-1,1.1-2.2v-.6C34.1,33.9,33.9,32.4,33,32.4ZM22.6,44.2h0l-.6,1.4h1.3ZM12,43.9h-.7v2.4H12a1.2,1.2,0,0,0,0-2.4ZM19.5,2C-3.5-5.4-1.7,7.8,2.8,35.7s3.6,41.1,20,33.7,38-21.3,39.7-33.7S42.1,9,19.5,2ZM12,46.6H11V43.7h1a1.5,1.5,0,1,1,0,3Zm2.5-.1h-.3V43.7h.3Zm3.2-.2h0a2.1,2.1,0,0,1-1,.3,1.5,1.5,0,1,1,0-3,1.5,1.5,0,0,1,1,.4.1.1,0,0,1,0,.1h-.2a1.3,1.3,0,0,0-.8-.3,1.2,1.2,0,0,0,0,2.4,1.5,1.5,0,0,0,.8-.2v-.6h-.6v-.2h.9Zm1,.2h-.3V43.7h.3Zm-4-11.6c-.7-.2.1-2.7.5-2.6,3.2,1.3,4.6-5.4,0-5.4h-1V39c0,1.2.1,2-.2,2.2l-.4.2H11.6a.6.6,0,0,1-.6-.6V25.2a.6.6,0,0,1,.6-.6h2.1l.5.2,2.1-.3c6.9.2,6.6,8.1,2.9,10A5.4,5.4,0,0,1,14.8,34.9Zm5.6,9v2.6h-.3V43.9h.3Zm3.5,2.7h-.2l-.3-.7H21.8l-.3.7h-.2a.1.1,0,0,1-.1-.1l1.3-2.8h.2l1.3,2.8A.1.1,0,0,1,23.9,46.6Zm2.1-.1H24.4V43.7h.3v2.6H26ZM52.7,35.7c-1.1,2.6-2,5.2-4,6.6h0c0,1.9-1.2,4.5-4.2,4.5s-3.1-4.8,0-4.8h1.2V39.2c-.7,1.2-1.7,2.2-2.8,2.2A2.5,2.5,0,0,1,40,38.9c-.7,1.3-1.8,2.5-3,2.5a2.4,2.4,0,0,1-2.7-1.9,3.3,3.3,0,0,1-3.1,1.9c-1.1,0-1.9-1-2.3-2.6-.8,1.4-1.8,2.6-3.1,2.6s-2.9-1.2-2.9-4V25.2a.6.6,0,0,1,.6-.6h1.7a.6.6,0,0,1,.6.6V37.1c0,.7.3,1.3,1,1.3S28.1,37,28.5,36h0c0-.2,0-.5,0-.7,0-3.3,1.5-5.9,3.1-5.9a2.8,2.8,0,0,1,2.5,1.3V30a.6.6,0,0,1,.6-.6h1.7a.6.6,0,0,1,.6.6v7.1c0,.7.3,1.3.9,1.3s1.6-2.1,1.9-2.9V30a.6.6,0,0,1,.6-.6h1.7a.6.6,0,0,1,.6.6v7.1c0,.7.3,1.3.9,1.3s1.5-1.7,1.8-2.7V30a.6.6,0,0,1,.6-.6H48a.6.6,0,0,1,.6.6V40.1a29.4,29.4,0,0,0,2.6-4.9A.7.7,0,1,1,52.7,35.7Zm-8.3,8.7a1.2,1.2,0,0,0,1.1-.9H44.4C43.6,43.5,43.6,44.4,44.4,44.4ZM33,32.4c-.9,0-1.4,1.8-1.4,3.3S32.2,38,33,38s1.1-1,1.1-2.2v-.6C34.1,33.9,33.9,32.4,33,32.4ZM22.5,44.2l-.6,1.4h1.3l-.6-1.4ZM12,43.9h-.7v2.4H12a1.2,1.2,0,0,0,0-2.4Zm0,0h-.7v2.4H12a1.2,1.2,0,0,0,0-2.4Zm10.6.3h0l-.6,1.4h1.3ZM33,32.4c-.9,0-1.4,1.8-1.4,3.3S32.2,38,33,38s1.1-1,1.1-2.2v-.6C34.1,33.9,33.9,32.4,33,32.4Zm0,0c-.9,0-1.4,1.8-1.4,3.3S32.2,38,33,38s1.1-1,1.1-2.2v-.6C34.1,33.9,33.9,32.4,33,32.4ZM22.6,44.2h0l-.6,1.4h1.3ZM12,43.9h-.7v2.4H12a1.2,1.2,0,0,0,0-2.4Zm0,0h-.7v2.4H12a1.2,1.2,0,0,0,0-2.4Zm10.6.3h0l-.6,1.4h1.3Zm0,0h0l-.6,1.4h1.3ZM12,43.9h-.7v2.4H12a1.2,1.2,0,0,0,0-2.4Zm0,0h-.7v2.4H12a1.2,1.2,0,0,0,0-2.4Zm0,0h-.7v2.4H12a1.2,1.2,0,0,0,0-2.4Zm0,0h-.7v2.4H12a1.2,1.2,0,0,0,0-2.4Zm0,0h-.7v2.4H12a1.2,1.2,0,0,0,0-2.4Zm0,0h-.7v2.4H12a1.2,1.2,0,0,0,0-2.4Zm0,0h-.7v2.4H12a1.2,1.2,0,0,0,0-2.4Z"/></g><g class="2c713d5b-639e-4172-a82c-e5681cca494b"><path class="ae562d08-8621-48b6-acd5-4319f22ea85c" d="M16.6,24.5h0Z"/></g></g></g></g></svg>